<?xml version="1.0" standalone="no"?>
<!DOCTYPE svg PUBLIC "-//W3C//DTD SVG 20010904//EN"
 "http://www.w3.org/TR/2001/REC-SVG-20010904/DTD/svg10.dtd">
<svg version="1.0" xmlns="http://www.w3.org/2000/svg"
 width="3464.000000pt" height="3464.000000pt" viewBox="0 0 3464.000000 3464.000000"
 preserveAspectRatio="xMidYMid meet">

<g transform="translate(0.000000,3464.000000) scale(0.100000,-0.100000)"
fill="#000000" stroke="none">
<path d="M23135 30015 c-86 -23 -144 -43 -193 -68 -149 -75 -230 -157 -283
-288 -27 -66 -29 -81 -29 -198 0 -105 4 -139 24 -203 24 -75 83 -207 108 -239
7 -9 121 -71 253 -137 245 -125 331 -170 490 -259 50 -28 113 -63 140 -78 56
-32 111 -64 140 -83 11 -6 27 -15 35 -19 23 -10 384 -230 480 -291 47 -31 130
-85 185 -121 55 -36 105 -68 110 -71 16 -8 109 -71 235 -159 63 -44 155 -108
204 -142 224 -154 698 -518 916 -703 14 -11 52 -43 85 -71 72 -60 200 -172
310 -270 44 -39 118 -105 165 -145 102 -88 804 -790 875 -875 28 -33 82 -96
120 -140 361 -413 395 -454 615 -750 91 -121 167 -222 170 -225 3 -3 46 -63
96 -135 184 -262 394 -599 513 -818 20 -37 41 -75 46 -85 103 -178 138 -245
317 -602 92 -184 168 -342 168 -351 0 -8 4 -19 8 -25 5 -5 23 -49 41 -99 18
-49 39 -104 47 -122 8 -17 14 -38 14 -46 0 -9 4 -18 9 -22 5 -3 13 -20 17 -37
3 -18 10 -39 15 -48 5 -8 29 -69 54 -135 25 -66 52 -136 60 -155 65 -166 116
-331 155 -510 5 -19 22 -89 40 -155 17 -66 36 -139 41 -163 5 -24 11 -48 14
-53 4 -5 10 -30 15 -57 5 -26 23 -99 40 -162 18 -63 35 -135 40 -160 5 -25 13
-58 19 -73 6 -16 11 -42 11 -58 0 -16 6 -55 14 -87 8 -31 20 -102 26 -157 6
-55 16 -131 21 -170 26 -189 41 -307 49 -375 4 -41 13 -102 19 -135 34 -196
45 -336 68 -865 32 -754 17 -1512 -42 -2115 -9 -82 -17 -179 -19 -215 -4 -75
-23 -245 -37 -340 -5 -36 -18 -126 -29 -200 -18 -132 -27 -180 -56 -327 -39
-196 -86 -412 -109 -498 -22 -84 -36 -138 -45 -180 -4 -22 -22 -89 -40 -150
-17 -60 -35 -126 -39 -145 -5 -19 -13 -46 -18 -60 -6 -14 -18 -50 -26 -80 -35
-118 -110 -345 -119 -355 -4 -5 -8 -16 -8 -24 0 -26 -174 -479 -245 -636 -8
-17 -22 -50 -33 -75 -37 -84 -123 -264 -189 -395 -60 -119 -82 -159 -149 -280
-13 -22 -29 -51 -37 -65 -7 -14 -28 -52 -47 -85 -18 -33 -46 -85 -63 -115 -17
-30 -40 -71 -52 -90 -12 -19 -25 -42 -28 -50 -4 -8 -16 -28 -27 -45 -11 -16
-23 -37 -27 -45 -44 -86 -488 -773 -648 -1000 -40 -58 -101 -145 -135 -195
-108 -155 -315 -426 -404 -530 -48 -55 -130 -152 -183 -215 -145 -172 -304
-337 -628 -650 -89 -85 -217 -209 -285 -275 -69 -66 -148 -140 -177 -164 -75
-63 -166 -151 -156 -151 4 0 20 11 35 25 15 14 29 25 32 25 2 0 15 9 28 19
207 171 296 246 358 302 497 443 649 581 725 660 421 439 501 524 533 566 20
26 38 50 41 53 18 15 490 607 552 690 167 225 239 328 390 550 32 47 62 90 66
95 9 10 85 126 165 250 92 144 358 589 358 601 0 2 30 59 68 126 66 121 209
405 252 503 13 28 33 73 47 100 13 28 40 88 60 135 19 47 45 108 58 135 21 45
82 196 122 300 9 22 19 49 24 60 5 11 19 52 33 90 13 39 38 108 56 155 17 47
35 99 39 115 5 17 13 41 19 55 20 48 92 280 92 296 0 9 6 37 14 63 33 107 82
286 95 351 4 19 13 51 19 70 35 109 69 266 107 495 9 55 21 125 27 155 20 107
35 197 57 330 33 210 40 259 46 345 4 44 11 103 16 130 5 28 14 115 19 195 6
80 17 217 25 305 18 196 31 340 44 510 16 192 17 1512 2 1655 -7 63 -16 167
-21 230 -6 63 -17 192 -25 285 -8 94 -20 232 -25 309 -5 76 -14 155 -19 175
-5 20 -12 63 -16 96 -3 33 -10 83 -16 110 -5 28 -19 100 -30 160 -24 125 -50
249 -94 460 -20 91 -27 131 -44 230 -7 39 -19 92 -27 119 -8 26 -14 57 -14 68
0 10 -6 40 -14 66 -8 26 -22 74 -31 107 -26 93 -66 226 -80 265 -18 51 -32 94
-66 200 -17 52 -35 106 -41 120 -6 14 -32 93 -59 175 -27 83 -53 159 -58 170
-8 19 -29 70 -101 249 -18 44 -35 87 -40 95 -28 59 -90 201 -90 206 0 3 -16
40 -36 82 -20 43 -48 103 -61 133 -87 191 -312 634 -408 800 -23 41 -55 98
-70 125 -223 402 -783 1210 -1130 1630 -113 137 -339 402 -418 490 -367 408
-912 952 -1267 1266 -52 46 -97 86 -100 89 -8 10 -271 233 -340 289 -352 286
-509 408 -855 662 -277 204 -596 422 -900 616 -132 84 -511 316 -563 344 -20
11 -44 24 -52 30 -19 12 -193 110 -286 160 -65 35 -78 39 -140 38 -38 -1 -91
-7 -119 -14z"/>
<path d="M19165 29480 c-112 -30 -322 -192 -391 -301 -57 -91 -74 -153 -74
-273 0 -120 7 -150 67 -275 38 -78 132 -202 190 -250 34 -28 54 -34 218 -61
111 -18 223 -38 310 -55 44 -8 103 -20 130 -25 59 -11 173 -36 265 -56 36 -8
86 -19 111 -24 25 -4 64 -13 85 -19 21 -6 102 -26 179 -45 77 -19 190 -48 250
-64 61 -16 151 -39 200 -51 50 -13 104 -29 122 -37 17 -8 36 -14 42 -14 7 0
80 -21 164 -46 84 -26 172 -52 197 -59 25 -8 59 -19 75 -25 17 -6 91 -30 165
-55 148 -48 187 -61 240 -81 19 -7 69 -24 110 -39 71 -25 101 -36 188 -69 20
-8 91 -35 157 -61 66 -25 129 -50 140 -54 11 -5 103 -44 205 -86 102 -42 222
-95 268 -116 46 -21 85 -39 87 -39 18 0 678 -321 798 -389 18 -10 68 -38 112
-62 44 -24 87 -48 97 -54 9 -5 34 -20 55 -31 264 -147 733 -436 828 -511 6 -4
71 -48 145 -98 151 -100 286 -198 423 -309 50 -41 146 -116 212 -167 437 -337
910 -808 1441 -1434 65 -78 138 -165 162 -195 75 -96 563 -814 634 -935 56
-93 138 -237 138 -241 0 -2 17 -32 38 -66 21 -35 62 -107 91 -162 29 -54 62
-114 73 -135 52 -91 216 -413 271 -531 85 -182 117 -251 117 -255 0 -2 14 -34
31 -72 57 -127 66 -148 89 -203 36 -89 51 -124 61 -145 5 -11 32 -81 60 -155
29 -74 60 -157 71 -185 11 -27 35 -95 53 -150 47 -138 56 -165 71 -205 6 -19
31 -96 53 -170 23 -74 48 -156 56 -181 8 -26 15 -57 15 -68 0 -12 5 -32 12
-44 6 -12 15 -38 19 -57 10 -51 78 -327 95 -386 8 -28 14 -61 14 -73 0 -12 7
-47 14 -79 19 -73 42 -195 57 -297 6 -44 17 -113 25 -154 8 -40 14 -93 14
-117 0 -24 6 -79 14 -121 59 -319 93 -1284 66 -1853 -21 -439 -50 -844 -70
-955 -5 -33 -10 -81 -10 -107 0 -27 -6 -87 -14 -135 -8 -49 -19 -131 -25 -183
-13 -106 -35 -244 -53 -335 -6 -33 -15 -85 -19 -115 -4 -30 -13 -80 -19 -110
-6 -30 -18 -89 -26 -130 -9 -41 -19 -93 -24 -115 -5 -22 -16 -74 -26 -115 -9
-41 -22 -95 -30 -120 -8 -25 -14 -54 -14 -65 0 -10 -6 -37 -14 -60 -8 -22 -19
-65 -26 -95 -7 -30 -25 -95 -41 -145 -16 -49 -36 -115 -45 -145 -34 -112 -44
-147 -69 -222 -14 -42 -25 -82 -25 -88 0 -7 -6 -26 -14 -43 -7 -18 -42 -108
-76 -202 -35 -93 -67 -174 -72 -180 -4 -5 -8 -16 -8 -25 0 -8 -7 -28 -15 -44
-8 -15 -15 -32 -15 -36 0 -5 -14 -39 -31 -77 -17 -37 -39 -87 -49 -109 -11
-23 -40 -88 -65 -145 -26 -57 -58 -126 -72 -154 -58 -112 -126 -241 -133 -250
-4 -5 -43 -80 -87 -165 -150 -290 -216 -415 -240 -452 -12 -21 -23 -40 -23
-42 0 -14 -173 -287 -275 -435 -304 -438 -389 -551 -515 -686 -36 -39 -99
-108 -141 -155 -104 -116 -246 -274 -308 -340 -28 -30 -51 -59 -51 -63 0 -21
144 121 530 518 215 223 217 225 361 415 68 90 144 189 169 220 193 244 293
386 381 538 30 51 62 105 71 120 20 32 30 47 83 137 22 37 48 79 57 93 10 15
21 34 25 42 4 8 23 39 42 70 20 30 41 64 48 75 6 11 47 79 91 150 104 169 108
178 217 395 112 223 165 337 165 354 0 6 4 16 9 21 16 17 173 396 191 460 5
17 23 68 40 115 18 47 36 99 40 115 9 32 28 87 41 120 11 25 28 81 68 215 18
58 37 119 42 135 6 17 15 46 20 65 4 19 20 78 34 130 60 220 67 247 74 285 4
22 13 58 19 80 13 47 55 236 107 490 8 39 21 113 30 165 9 52 22 129 30 170
12 69 18 107 45 290 45 300 68 518 100 965 5 83 15 213 20 290 13 177 20 1033
10 1225 -17 309 -40 583 -61 720 -5 36 -14 99 -19 140 -19 154 -72 459 -110
630 -12 52 -25 115 -30 140 -8 43 -20 94 -40 170 -5 19 -17 67 -26 105 -8 39
-22 93 -30 120 -8 28 -22 74 -30 102 -8 29 -22 79 -31 110 -9 32 -19 69 -24
83 -4 14 -22 72 -39 130 -17 58 -36 116 -42 130 -6 14 -14 39 -19 55 -4 17
-28 89 -54 160 -25 72 -50 145 -55 164 -5 18 -13 38 -19 44 -6 6 -11 17 -11
25 0 13 -63 185 -95 257 -7 17 -27 66 -45 110 -61 150 -63 155 -109 258 -17
38 -31 70 -31 72 0 3 -11 28 -24 57 -47 103 -93 204 -117 258 -49 109 -300
604 -390 768 -16 28 -43 78 -61 110 -17 31 -48 84 -68 117 -20 33 -39 67 -43
75 -4 8 -16 29 -27 45 -11 17 -23 37 -27 45 -10 21 -192 317 -268 435 -36 55
-68 107 -72 115 -12 27 -182 260 -203 280 -10 9 -152 189 -264 335 -240 312
-219 288 -628 715 -309 323 -396 406 -724 690 -60 52 -111 97 -114 100 -42 44
-282 234 -496 393 -356 264 -506 371 -657 467 -82 52 -214 137 -295 189 -152
97 -356 222 -382 234 -8 4 -28 15 -45 25 -41 25 -106 62 -223 124 -53 29 -124
67 -157 84 -116 63 -172 92 -370 192 -206 103 -492 242 -499 242 -3 0 -44 18
-93 41 -112 52 -137 63 -198 89 -27 11 -58 25 -67 30 -10 6 -22 10 -27 10 -5
0 -38 13 -73 29 -35 16 -128 54 -208 85 -80 31 -158 63 -175 71 -16 7 -64 25
-105 40 -74 26 -131 47 -180 67 -14 6 -36 14 -50 19 -14 4 -83 29 -155 54 -71
26 -145 51 -164 55 -18 5 -38 13 -44 19 -6 6 -19 11 -29 11 -9 0 -32 6 -50 14
-18 8 -73 26 -123 41 -142 43 -174 53 -275 84 -52 16 -131 41 -175 54 -44 14
-96 28 -115 32 -19 4 -41 11 -50 16 -8 4 -53 17 -100 29 -47 12 -137 35 -200
52 -63 16 -140 36 -170 43 -30 7 -91 22 -135 33 -75 19 -269 64 -415 97 -88
19 -159 25 -195 15z"/>
<path d="M16245 28249 c-104 -5 -241 -14 -304 -20 -63 -6 -175 -15 -250 -19
-75 -5 -145 -11 -156 -15 -11 -3 -72 -10 -135 -15 -182 -16 -226 -25 -268 -57
-69 -51 -170 -178 -220 -278 -54 -108 -64 -155 -60 -273 3 -104 4 -110 47
-196 66 -133 177 -241 334 -326 84 -45 107 -49 210 -32 231 39 430 67 622 87
83 9 186 20 230 26 498 61 1842 61 2375 0 47 -6 157 -17 245 -26 88 -9 183
-20 210 -25 28 -5 75 -12 105 -15 30 -3 93 -12 140 -20 47 -8 114 -19 150 -24
143 -22 349 -61 457 -87 34 -7 71 -14 84 -14 12 0 45 -6 73 -14 28 -8 76 -20
106 -26 95 -19 193 -41 245 -55 92 -24 140 -36 180 -44 56 -12 345 -92 450
-126 22 -7 81 -25 130 -40 50 -14 101 -31 115 -37 14 -6 39 -14 55 -18 105
-28 576 -207 790 -300 11 -5 74 -31 140 -59 216 -89 444 -196 700 -330 55 -28
107 -56 115 -61 8 -6 51 -30 95 -54 141 -77 169 -93 375 -215 67 -41 291 -182
410 -259 353 -230 472 -314 625 -440 11 -9 90 -73 175 -142 167 -134 599 -493
640 -531 14 -13 84 -77 155 -143 142 -131 533 -519 635 -632 378 -412 667
-799 949 -1269 39 -66 76 -127 81 -135 5 -8 26 -46 46 -85 20 -38 40 -74 44
-80 30 -40 380 -740 380 -760 0 -2 14 -34 31 -72 51 -112 57 -126 79 -178 12
-28 30 -68 40 -90 28 -61 54 -121 94 -220 21 -49 43 -103 51 -120 7 -16 32
-77 55 -135 23 -58 47 -118 54 -135 8 -16 20 -48 29 -70 58 -152 71 -184 83
-213 8 -18 14 -37 14 -43 0 -6 6 -25 13 -42 37 -87 142 -409 199 -607 61 -218
87 -319 118 -460 6 -30 16 -70 22 -88 5 -19 14 -57 19 -85 14 -89 30 -171 39
-207 5 -19 23 -127 40 -240 17 -113 36 -236 41 -275 6 -38 15 -124 20 -190 4
-66 13 -151 18 -190 13 -90 13 -986 0 -1085 -5 -41 -13 -129 -18 -195 -5 -66
-14 -142 -20 -170 -6 -27 -15 -88 -21 -135 -20 -151 -28 -204 -71 -475 -5 -33
-13 -73 -19 -90 -5 -16 -13 -57 -19 -90 -6 -33 -17 -91 -26 -130 -9 -38 -20
-92 -26 -120 -5 -27 -16 -83 -24 -122 -8 -40 -21 -103 -29 -140 -35 -171 -48
-232 -86 -393 -15 -62 -39 -168 -54 -233 -20 -84 -61 -245 -74 -288 -6 -19
-17 -56 -25 -84 -36 -121 -50 -168 -92 -295 -73 -223 -122 -360 -160 -445 -7
-16 -34 -82 -61 -145 -26 -63 -50 -122 -54 -130 -4 -8 -17 -35 -28 -60 -70
-158 -163 -339 -284 -555 -25 -44 -55 -98 -68 -120 -12 -22 -51 -87 -87 -145
-35 -58 -70 -114 -76 -125 -67 -111 -71 -120 -32 -84 13 13 25 29 25 36 0 7 6
16 13 20 6 4 17 15 22 24 14 23 203 308 226 341 11 15 19 29 19 32 0 3 13 25
30 49 17 25 30 48 30 51 0 3 17 34 38 68 94 153 273 497 371 708 23 52 46 102
51 110 4 8 28 67 54 130 26 63 53 129 61 145 7 17 32 82 55 145 22 63 47 129
54 145 16 38 30 77 67 195 17 52 37 113 45 135 8 23 14 47 14 54 0 7 6 27 14
44 7 18 21 61 31 97 9 36 22 77 27 92 5 14 14 41 18 60 8 32 26 94 56 193 8
28 19 66 24 85 4 19 22 89 40 155 17 66 38 145 45 175 51 208 87 351 97 385 6
22 15 58 19 80 5 22 15 72 23 110 21 104 41 205 65 345 12 69 27 145 32 170 6
25 15 83 19 130 5 47 13 117 19 155 80 554 80 1467 0 2060 -6 44 -15 107 -19
140 -4 33 -12 83 -18 110 -6 28 -18 91 -27 140 -9 50 -19 101 -22 115 -7 36
-33 185 -43 250 -11 65 -74 315 -115 450 -9 30 -23 75 -30 100 -7 25 -23 77
-34 115 -12 39 -28 95 -36 125 -27 96 -44 151 -105 335 -56 170 -81 240 -152
430 -16 44 -32 89 -35 100 -2 11 -11 34 -18 50 -8 17 -29 71 -46 120 -18 50
-36 94 -41 100 -4 5 -8 18 -8 30 0 12 -7 30 -15 41 -8 10 -15 27 -15 36 0 9
-7 29 -15 45 -8 15 -28 64 -45 108 -31 80 -41 104 -65 160 -7 17 -34 82 -61
145 -26 63 -51 122 -55 130 -4 8 -21 44 -37 80 -64 145 -91 203 -183 385 -119
235 -180 351 -213 404 -14 22 -26 43 -26 46 0 12 -211 354 -313 505 -133 199
-426 589 -487 650 -3 3 -39 46 -80 95 -154 185 -353 398 -625 670 -379 380
-504 496 -915 857 -248 217 -710 564 -1120 841 -121 81 -554 347 -566 347 -3
0 -17 8 -32 18 -15 11 -65 41 -112 69 -77 45 -116 67 -275 155 -104 58 -746
368 -761 368 -2 0 -32 13 -66 29 -52 23 -162 71 -303 131 -62 27 -388 149
-545 205 -36 12 -153 51 -260 85 -107 34 -213 68 -235 76 -23 8 -48 14 -57 14
-9 0 -29 7 -44 15 -16 8 -37 15 -47 15 -10 0 -53 11 -95 24 -42 13 -106 31
-142 40 -36 10 -81 22 -100 28 -19 6 -51 15 -70 19 -19 4 -89 22 -155 39 -176
46 -234 60 -292 69 -28 5 -58 13 -65 17 -7 5 -33 11 -58 15 -50 7 -375 71
-485 94 -38 8 -82 15 -96 15 -15 0 -57 6 -95 14 -128 27 -527 79 -733 96 -63
5 -140 14 -170 20 -30 5 -84 10 -120 10 -36 0 -133 7 -216 14 -343 34 -1137
45 -1620 25z"/>
<path d="M10060 25092 c-77 -58 -307 -247 -325 -268 -5 -6 -68 -62 -140 -124
-510 -446 -523 -459 -1084 -1048 -30 -31 -133 -155 -230 -276 -97 -120 -218
-271 -270 -335 -173 -213 -355 -464 -672 -926 -137 -200 -469 -748 -469 -774
0 -6 -4 -11 -8 -11 -4 0 -13 -12 -19 -27 -7 -16 -26 -52 -43 -82 -95 -164
-318 -624 -405 -835 -20 -49 -40 -96 -44 -105 -18 -36 -40 -88 -51 -121 -7
-19 -18 -48 -25 -65 -7 -16 -20 -50 -30 -75 -9 -25 -22 -56 -28 -70 -49 -118
-210 -594 -242 -715 -7 -27 -27 -102 -43 -165 -17 -63 -40 -151 -51 -195 -12
-44 -28 -102 -36 -130 -35 -122 -52 -196 -80 -350 -9 -49 -23 -123 -31 -163
-7 -40 -14 -86 -14 -102 0 -17 -6 -56 -14 -88 -17 -69 -40 -197 -56 -312 -7
-47 -18 -124 -26 -173 -8 -48 -14 -108 -14 -135 0 -26 -7 -85 -15 -132 -8 -47
-15 -121 -15 -165 0 -44 -5 -107 -10 -140 -6 -33 -15 -121 -20 -195 -5 -74
-14 -169 -19 -210 -22 -174 -31 -440 -36 -1010 -5 -610 2 -866 30 -1150 8 -85
20 -213 25 -285 5 -71 14 -168 20 -215 5 -47 10 -112 10 -144 0 -33 7 -98 15
-145 8 -47 22 -131 31 -186 9 -55 25 -145 36 -200 11 -55 24 -120 28 -145 4
-25 12 -65 18 -90 6 -25 18 -81 27 -125 9 -44 21 -98 26 -120 13 -57 36 -182
43 -235 4 -25 11 -58 16 -75 5 -16 16 -61 25 -100 9 -38 23 -90 30 -115 7 -25
21 -72 30 -105 19 -64 266 -806 288 -865 7 -19 18 -46 24 -60 6 -14 37 -88 68
-165 32 -77 70 -168 86 -203 16 -34 29 -65 29 -68 0 -4 18 -45 41 -93 22 -47
49 -104 59 -126 70 -153 92 -202 101 -215 5 -8 13 -24 18 -36 20 -45 130 -264
176 -349 84 -156 95 -176 192 -345 118 -206 117 -204 123 -210 3 -3 35 -52 70
-110 35 -58 86 -139 114 -180 28 -41 55 -83 61 -92 12 -21 207 -308 247 -363
90 -126 295 -405 319 -435 16 -19 68 -84 115 -144 47 -60 110 -139 141 -175
30 -36 64 -77 76 -91 252 -303 533 -607 916 -991 346 -345 558 -543 851 -794
58 -49 107 -92 110 -95 3 -3 41 -35 85 -70 44 -35 96 -78 115 -94 122 -106
439 -350 755 -582 295 -217 471 -338 823 -566 165 -108 540 -339 622 -385 19
-11 78 -45 130 -75 113 -65 241 -135 292 -160 44 -22 117 -23 190 -4 111 29
168 48 173 57 4 5 12 9 20 9 26 0 133 70 188 122 103 99 147 211 147 372 0 97
-16 181 -52 276 -17 44 -65 140 -81 161 -7 10 -127 75 -267 146 -140 72 -275
141 -300 155 -25 14 -71 39 -102 57 -141 76 -175 96 -210 118 -21 12 -40 23
-42 23 -3 0 -57 31 -122 70 -64 38 -118 70 -120 70 -14 0 -352 213 -669 423
-329 217 -721 496 -960 683 -260 204 -370 293 -514 419 -58 49 -141 121 -185
159 -45 39 -83 72 -86 76 -3 3 -66 59 -140 124 -184 162 -816 798 -970 976
-69 80 -157 181 -196 225 -167 190 -307 364 -487 604 -191 255 -212 285 -330
456 -97 141 -329 508 -350 555 -4 8 -16 29 -26 45 -11 17 -28 46 -39 65 -178
323 -248 455 -397 755 -84 171 -161 329 -169 353 -9 23 -23 61 -32 85 -26 67
-31 79 -47 122 -8 22 -23 60 -32 85 -30 77 -43 112 -85 225 -23 61 -47 124
-54 140 -33 78 -116 330 -126 380 -4 22 -36 148 -70 280 -34 132 -67 265 -75
295 -22 93 -85 343 -95 380 -14 49 -42 219 -60 360 -13 112 -37 291 -55 415
-8 55 -16 118 -18 140 -2 22 -10 76 -16 120 -26 181 -32 227 -41 370 -5 83
-14 281 -20 440 -5 160 -15 396 -21 525 -9 194 -8 300 5 605 17 403 32 668 47
870 6 72 14 189 19 260 5 72 13 150 19 175 6 25 11 67 11 95 0 27 7 92 15 145
8 52 24 156 35 230 38 250 68 404 127 650 13 58 31 134 40 170 16 72 28 117
94 360 17 63 37 133 44 155 7 22 28 87 45 145 17 58 41 130 52 160 11 30 24
69 28 85 7 25 30 89 74 210 46 126 61 162 154 385 117 280 270 603 362 765 25
45 103 184 145 260 15 28 31 55 35 60 4 6 24 42 44 80 21 39 46 84 56 100 10
17 28 47 39 67 11 20 44 74 74 120 29 46 82 128 116 183 34 55 85 134 111 175
27 41 66 102 86 135 54 87 181 275 260 387 38 53 103 145 144 205 158 229 363
495 498 645 31 36 107 123 169 194 143 166 878 892 1038 1026 49 40 152 138
145 137 -3 0 -39 -26 -80 -57z"/>
<path d="M9569 23884 c-66 -62 -322 -322 -524 -529 -92 -95 -161 -174 -208
-235 -18 -25 -52 -70 -74 -100 -23 -30 -89 -116 -148 -190 -239 -304 -302
-392 -420 -593 -39 -65 -77 -129 -85 -142 -8 -12 -39 -63 -68 -111 -30 -49
-79 -130 -110 -181 -68 -111 -228 -376 -252 -418 -23 -40 -201 -395 -233 -465
-37 -82 -198 -461 -208 -490 -4 -14 -29 -83 -54 -155 -26 -71 -51 -146 -57
-165 -5 -19 -14 -39 -19 -45 -5 -5 -9 -18 -9 -28 0 -10 -6 -33 -14 -50 -12
-27 -45 -131 -88 -277 -6 -19 -16 -53 -23 -75 -25 -76 -103 -370 -132 -495 -8
-36 -22 -92 -30 -125 -14 -62 -53 -238 -72 -335 -6 -30 -18 -86 -26 -125 -13
-62 -24 -125 -55 -315 -5 -30 -16 -93 -25 -140 -8 -47 -15 -102 -15 -122 0
-20 -5 -49 -11 -65 -6 -15 -14 -68 -19 -118 -4 -49 -13 -126 -19 -170 -17
-134 -46 -481 -76 -925 -21 -305 -21 -1107 0 -1385 28 -365 51 -581 81 -752 8
-45 14 -94 14 -110 0 -15 6 -57 14 -93 14 -61 80 -398 96 -485 7 -37 28 -124
50 -205 5 -19 19 -73 31 -120 11 -47 28 -110 36 -140 8 -30 20 -76 26 -102 7
-25 15 -50 20 -54 4 -4 7 -15 7 -25 0 -10 6 -38 14 -61 8 -24 29 -90 46 -148
35 -115 58 -184 70 -215 5 -11 25 -69 45 -128 20 -60 40 -119 45 -130 5 -12
24 -65 43 -117 38 -105 103 -274 117 -305 5 -11 32 -76 60 -145 29 -69 56
-129 61 -134 5 -6 9 -16 9 -22 0 -7 18 -52 40 -99 22 -47 40 -88 40 -91 0 -14
342 -710 423 -859 98 -182 222 -398 347 -605 17 -28 171 -275 244 -392 63 -99
216 -312 236 -328 4 -3 64 -79 134 -170 70 -91 133 -172 139 -180 7 -8 34 -44
62 -80 144 -191 339 -403 749 -815 219 -221 255 -255 411 -390 38 -33 114
-100 169 -149 212 -186 461 -378 921 -712 83 -60 159 -114 170 -121 50 -31
188 -120 270 -173 87 -57 288 -185 323 -205 9 -6 36 -23 59 -38 24 -15 45 -27
48 -27 2 0 33 -17 68 -39 81 -49 197 -115 317 -178 52 -28 124 -66 160 -85
290 -156 900 -458 924 -458 3 0 38 -16 80 -35 111 -51 367 -158 566 -237 96
-38 184 -73 195 -78 22 -9 188 -71 245 -91 19 -7 44 -16 55 -20 24 -10 145
-52 240 -84 39 -13 81 -28 95 -33 14 -6 86 -29 160 -52 74 -23 150 -48 168
-56 18 -8 40 -14 50 -14 9 0 34 -6 57 -14 41 -15 166 -54 265 -82 30 -9 69
-20 85 -26 17 -5 46 -13 65 -18 19 -4 87 -22 150 -40 63 -17 134 -36 158 -40
23 -5 51 -14 61 -20 11 -5 30 -10 43 -10 13 0 43 -6 68 -14 41 -13 164 -43
340 -81 36 -8 88 -20 115 -26 185 -42 229 -41 325 13 183 102 301 227 361 383
25 65 27 234 3 297 -51 139 -101 224 -185 319 -69 78 -99 94 -200 109 -41 6
-96 15 -122 21 -26 6 -76 15 -110 20 -55 7 -120 19 -267 49 -133 26 -200 40
-240 50 -25 6 -74 17 -110 25 -36 8 -99 22 -140 31 -41 9 -109 26 -150 37 -41
11 -94 23 -118 28 -24 5 -48 12 -55 16 -6 4 -29 10 -52 14 -22 4 -92 21 -155
38 -63 18 -131 36 -150 40 -19 5 -48 14 -65 19 -16 6 -55 18 -85 26 -107 31
-226 67 -265 82 -23 8 -47 14 -54 14 -7 0 -27 6 -44 13 -18 8 -59 22 -92 32
-33 10 -89 28 -125 40 -36 13 -94 33 -130 44 -36 12 -74 26 -85 31 -11 5 -47
18 -80 28 -67 23 -284 103 -354 132 -25 10 -82 32 -126 50 -44 17 -89 35 -100
40 -11 5 -90 38 -176 74 -86 36 -183 77 -215 92 -125 56 -172 78 -254 117 -47
22 -128 60 -180 84 -158 75 -423 208 -468 237 -23 14 -44 26 -48 26 -3 0 -54
28 -112 62 -59 34 -156 89 -217 123 -253 141 -336 192 -515 315 -14 10 -119
80 -235 156 -115 76 -253 169 -305 208 -88 65 -148 111 -482 375 -286 226
-669 585 -949 891 -297 323 -612 696 -702 830 -31 47 -92 137 -136 200 -177
255 -341 501 -403 605 -88 147 -198 337 -198 341 0 3 -10 21 -23 42 -58 92
-338 635 -420 812 -50 109 -87 191 -102 225 -7 17 -24 55 -38 85 -14 30 -46
107 -72 170 -26 63 -53 129 -60 145 -26 58 -43 101 -75 190 -18 50 -37 94 -42
99 -4 6 -8 19 -8 29 0 10 -6 31 -14 45 -15 30 -22 49 -72 202 -19 58 -38 114
-43 125 -4 11 -16 45 -25 75 -8 30 -25 84 -37 120 -20 61 -37 122 -60 215 -5
22 -13 49 -18 60 -5 11 -23 79 -41 150 -17 72 -35 146 -41 165 -9 34 -17 68
-44 200 -34 167 -54 273 -69 365 -9 55 -21 128 -27 163 -6 35 -15 100 -19 145
-4 45 -13 123 -19 172 -42 350 -53 564 -58 1145 -4 468 -2 578 17 880 35 561
38 603 49 650 6 25 11 70 11 100 0 30 7 97 14 150 8 52 20 133 26 180 36 272
94 612 135 795 9 39 20 90 25 115 6 25 17 74 26 110 8 36 21 90 29 120 11 48
23 96 54 216 15 58 63 209 77 242 8 18 14 39 14 48 0 17 46 163 66 212 8 18
14 44 14 57 0 13 4 26 9 29 5 3 12 18 16 33 3 16 24 75 46 133 23 58 47 123
56 145 8 22 21 53 29 68 8 16 14 36 14 46 0 9 7 26 15 37 8 10 15 25 15 31 0
12 16 48 75 178 12 28 33 75 46 105 30 72 172 356 213 428 18 32 62 113 98
182 36 69 98 188 138 264 40 76 85 161 101 188 16 27 29 51 29 53 0 9 143 239
197 318 59 86 135 197 218 317 88 128 217 299 291 386 106 125 517 578 568
626 11 10 17 21 13 24 -3 4 -39 -24 -78 -62z"/>
<path d="M16122 23463 c-11 -24 3 -1082 17 -1248 24 -282 101 -464 265 -622
50 -48 115 -106 144 -128 48 -38 232 -146 367 -216 33 -17 71 -39 85 -49 27
-19 75 -46 215 -123 152 -83 375 -212 469 -271 49 -31 95 -56 102 -56 8 0 44
-19 81 -43 38 -24 113 -69 168 -101 55 -32 151 -90 213 -127 62 -38 116 -69
120 -69 5 0 30 -14 58 -32 27 -17 96 -56 154 -86 58 -30 112 -60 120 -67 8 -7
35 -23 60 -35 41 -21 189 -107 378 -221 41 -24 86 -51 100 -59 15 -8 63 -36
108 -62 45 -27 84 -48 88 -48 4 0 73 -40 154 -88 81 -49 188 -110 237 -137 50
-26 132 -73 183 -104 52 -31 126 -73 165 -95 96 -51 343 -198 408 -242 122
-82 217 -188 248 -274 13 -40 39 -70 58 -70 18 0 105 43 173 87 30 19 120 73
200 120 203 119 202 118 302 213 104 99 168 183 228 299 35 67 44 98 52 169
13 116 4 263 -20 332 -35 99 -121 233 -196 303 -89 84 -128 112 -261 187 -71
40 -173 98 -225 130 -85 51 -265 153 -412 234 -29 16 -105 59 -168 96 -63 37
-120 69 -126 71 -5 2 -30 17 -55 32 -107 68 -178 109 -228 133 -30 14 -73 38
-95 53 -51 35 -194 116 -261 149 -27 13 -69 37 -92 53 -23 16 -44 29 -47 29
-3 0 -65 35 -138 77 -73 42 -148 85 -167 94 -18 10 -41 25 -50 33 -9 7 -32 23
-51 34 -19 11 -64 37 -100 58 -36 21 -101 56 -145 79 -115 59 -406 226 -430
246 -11 10 -46 29 -78 43 -32 14 -77 38 -100 54 -23 16 -116 71 -207 123 -91
51 -178 103 -195 115 -16 12 -57 36 -90 53 -33 17 -89 49 -125 70 -36 22 -96
56 -135 76 -38 21 -95 52 -125 70 -235 139 -339 199 -430 250 -58 32 -121 68
-140 80 -19 13 -71 43 -115 67 -77 43 -144 83 -321 189 -45 27 -97 55 -115 63
-19 8 -45 23 -59 34 -14 11 -48 29 -77 42 -29 12 -58 28 -64 36 -16 20 -67 18
-77 -3z"/>
<path d="M8980 22549 c0 -5 5 -7 10 -4 6 3 10 8 10 11 0 2 -4 4 -10 4 -5 0
-10 -5 -10 -11z"/>
<path d="M8950 22499 c0 -5 5 -7 10 -4 6 3 10 8 10 11 0 2 -4 4 -10 4 -5 0
-10 -5 -10 -11z"/>
<path d="M8930 22469 c0 -5 5 -7 10 -4 6 3 10 8 10 11 0 2 -4 4 -10 4 -5 0
-10 -5 -10 -11z"/>
<path d="M8868 22388 c-65 -89 -208 -306 -265 -403 -6 -11 -39 -66 -73 -123
-175 -295 -369 -681 -491 -975 -27 -67 -54 -131 -58 -142 -5 -11 -16 -40 -26
-65 -9 -25 -22 -56 -27 -70 -5 -14 -17 -45 -25 -70 -8 -25 -21 -58 -28 -75
-32 -73 -127 -370 -205 -640 -22 -77 -46 -160 -54 -185 -20 -64 -40 -139 -71
-260 -14 -58 -32 -125 -40 -150 -9 -25 -15 -53 -15 -64 0 -10 -7 -39 -15 -65
-23 -73 -82 -312 -95 -383 -5 -26 -13 -56 -19 -67 -6 -11 -11 -36 -11 -56 0
-20 -6 -60 -14 -88 -8 -29 -26 -119 -40 -202 -15 -82 -33 -184 -41 -225 -8
-42 -15 -91 -15 -110 0 -19 -6 -73 -14 -120 -59 -342 -89 -1159 -57 -1575 22
-294 42 -499 56 -586 8 -47 15 -98 15 -113 0 -15 6 -55 14 -89 8 -34 26 -129
41 -212 14 -82 32 -179 40 -215 8 -36 15 -78 15 -94 0 -16 7 -53 15 -83 8 -29
22 -79 30 -110 32 -120 37 -139 51 -178 8 -23 14 -48 14 -57 0 -10 6 -32 14
-50 7 -18 21 -58 29 -88 28 -97 44 -154 57 -200 7 -25 18 -63 24 -85 7 -22 21
-67 31 -100 22 -74 104 -323 115 -350 4 -11 29 -78 55 -150 26 -71 53 -144 61
-162 8 -17 14 -37 14 -45 0 -8 4 -18 9 -24 5 -5 19 -38 31 -74 48 -137 43
-123 157 -415 30 -77 61 -153 68 -170 22 -48 51 -115 75 -175 26 -63 49 -115
111 -250 61 -133 300 -606 332 -657 15 -24 27 -44 27 -47 0 -2 38 -68 84 -147
213 -365 453 -706 757 -1074 333 -403 843 -923 1354 -1380 49 -44 114 -102
145 -130 239 -215 405 -346 865 -681 277 -203 630 -436 735 -487 8 -4 24 -13
35 -20 380 -232 679 -397 955 -525 47 -22 135 -63 195 -92 164 -78 220 -103
330 -150 55 -23 118 -50 140 -59 22 -10 60 -26 85 -36 25 -9 53 -21 62 -26 9
-4 41 -17 70 -28 29 -11 78 -29 108 -41 30 -12 66 -25 80 -30 14 -5 84 -29
155 -55 72 -25 159 -55 195 -66 36 -12 81 -27 100 -34 19 -7 82 -28 140 -45
58 -18 116 -36 130 -40 14 -5 59 -18 100 -30 41 -12 86 -25 100 -30 14 -4 54
-16 90 -25 36 -10 85 -23 110 -30 172 -49 195 -55 430 -111 107 -25 210 -50
227 -56 18 -5 54 -13 80 -17 27 -5 95 -18 153 -30 58 -11 141 -28 185 -36 44
-9 103 -21 130 -27 28 -5 79 -14 115 -18 36 -5 121 -17 190 -28 274 -44 827
-109 985 -116 55 -3 165 -9 245 -15 326 -23 744 -34 1060 -28 379 8 719 23
840 37 47 5 117 10 155 10 39 0 111 7 160 15 50 8 110 15 135 15 25 0 91 7
148 17 126 21 164 47 262 176 109 143 149 238 157 373 9 155 -45 284 -172 409
-115 114 -278 211 -339 202 -76 -11 -185 -29 -236 -38 -30 -6 -95 -15 -143
-20 -48 -4 -92 -11 -96 -13 -4 -3 -55 -10 -112 -16 -57 -5 -165 -17 -239 -25
-74 -8 -207 -19 -295 -25 -88 -5 -207 -15 -265 -21 -176 -18 -1340 -15 -1573
5 -106 9 -246 21 -312 27 -211 18 -408 39 -496 54 -47 8 -103 15 -125 15 -21
0 -64 7 -94 15 -30 8 -71 15 -91 15 -20 0 -67 6 -105 14 -38 8 -112 22 -164
31 -103 17 -158 28 -235 45 -27 6 -72 15 -100 19 -27 5 -70 13 -95 20 -64 16
-348 81 -395 90 -22 4 -56 12 -75 19 -19 6 -91 25 -160 42 -69 18 -136 35
-150 40 -14 5 -52 16 -85 25 -33 9 -78 22 -100 29 -22 7 -65 20 -95 29 -132
40 -397 129 -512 173 -184 70 -310 119 -423 166 -66 28 -136 57 -155 65 -69
29 -147 62 -340 148 -87 39 -461 227 -560 282 -30 17 -100 56 -155 88 -55 31
-116 66 -135 77 -149 84 -416 253 -735 463 -285 188 -479 338 -1065 827 -96
80 -188 158 -205 173 -16 15 -86 80 -155 144 -164 152 -554 540 -655 652 -44
49 -89 99 -100 112 -503 556 -994 1341 -1386 2215 -25 55 -50 110 -93 205 -20
43 -36 84 -36 91 0 6 -4 16 -9 22 -5 5 -28 54 -51 109 -23 55 -50 118 -59 140
-45 101 -81 188 -81 196 0 5 -11 32 -24 61 -26 57 -68 165 -136 348 -23 63
-46 124 -51 135 -12 28 -57 158 -81 235 -11 36 -24 73 -29 82 -5 10 -13 34
-18 55 -5 21 -26 92 -45 158 -20 66 -43 145 -51 175 -9 30 -22 78 -29 105 -28
98 -84 347 -96 420 -4 28 -13 63 -19 78 -6 16 -11 42 -11 58 0 16 -7 55 -15
87 -19 74 -56 303 -66 412 -5 47 -13 107 -19 133 -5 26 -10 76 -10 110 0 34
-7 107 -16 162 -24 149 -24 1074 0 1222 9 57 16 127 16 155 0 29 6 89 14 133
8 44 22 134 31 200 30 218 61 411 77 475 6 25 14 68 19 95 4 28 22 115 39 195
17 80 35 172 41 204 5 33 12 63 15 68 3 5 9 33 14 61 4 29 12 72 18 97 6 25
19 81 28 125 10 44 28 122 41 174 12 51 23 101 23 111 0 10 6 40 14 66 8 27
29 108 46 179 18 72 35 141 40 155 4 14 14 50 23 80 33 112 61 200 124 390 64
192 80 234 170 455 43 104 55 132 119 273 45 97 190 384 223 440 17 29 31 55
31 57 0 6 133 233 212 363 38 63 68 118 66 123 -2 6 -24 -18 -50 -53z"/>
<path d="M15140 21230 c-8 -15 -10 -203 -8 -638 l4 -617 28 -135 c28 -135 86
-291 124 -334 10 -11 27 -34 37 -51 31 -50 135 -153 210 -208 38 -28 87 -66
108 -83 21 -18 50 -35 64 -39 14 -3 45 -19 69 -36 23 -16 44 -29 47 -29 2 0
62 -31 132 -70 70 -38 130 -70 132 -70 2 0 22 -12 46 -27 56 -35 179 -107 362
-211 274 -155 349 -199 480 -277 72 -43 141 -85 155 -94 37 -24 117 -67 190
-102 36 -17 79 -41 95 -53 17 -13 55 -36 85 -53 30 -16 96 -54 145 -83 50 -29
113 -66 140 -80 59 -32 193 -110 289 -169 38 -24 79 -46 91 -51 12 -5 46 -24
76 -43 56 -36 288 -167 295 -167 3 0 33 -17 67 -38 34 -22 100 -60 147 -87
163 -92 375 -216 516 -302 40 -24 76 -43 81 -43 5 0 42 -21 83 -46 41 -25 91
-54 111 -64 19 -10 54 -34 76 -52 23 -18 80 -64 127 -101 78 -62 86 -72 101
-123 9 -30 23 -58 32 -61 9 -4 33 2 52 13 193 109 243 133 289 143 95 20 210
90 344 208 54 47 98 89 98 92 0 4 20 30 44 60 94 114 166 308 166 447 0 95
-35 245 -73 314 -118 213 -215 299 -512 455 -38 21 -101 56 -140 80 -38 23
-117 68 -175 100 -58 32 -118 66 -135 76 -16 10 -59 35 -95 55 -66 37 -122 69
-287 165 -51 30 -151 88 -223 129 -72 41 -157 90 -188 109 -31 19 -80 47 -108
61 -28 15 -68 39 -90 52 -42 27 -70 43 -269 153 -183 101 -340 191 -410 234
-33 21 -123 72 -200 115 -77 43 -162 91 -190 108 -91 56 -306 179 -323 185 -9
4 -35 18 -57 33 -22 14 -64 39 -94 54 -29 16 -78 43 -107 60 -81 47 -249 147
-318 188 -103 62 -234 137 -396 228 -85 47 -175 99 -198 114 -24 15 -110 65
-190 110 -190 108 -321 184 -352 205 -14 10 -72 44 -130 75 -58 32 -130 74
-162 92 -31 19 -58 34 -61 34 -2 0 -45 25 -95 55 -98 59 -135 67 -152 35z"/>
<path d="M16118 17876 c-16 -37 6 -1167 26 -1298 49 -321 180 -505 515 -727
98 -65 134 -86 264 -157 44 -24 84 -48 91 -53 17 -14 399 -229 495 -278 57
-30 91 -41 105 -37 28 8 307 158 371 199 28 18 62 36 75 40 14 4 41 18 61 31
20 13 86 49 145 82 60 33 141 77 179 99 39 22 149 84 245 138 96 53 180 101
185 105 6 4 53 29 105 55 149 75 202 112 198 137 -2 11 -10 25 -18 29 -8 4
-53 30 -100 57 -47 27 -128 73 -180 102 -52 29 -126 71 -165 93 -38 22 -101
58 -140 80 -38 22 -95 54 -125 72 -94 56 -153 82 -209 94 -56 12 -222 98 -382
197 -47 30 -90 54 -94 54 -5 0 -22 11 -39 23 -17 13 -42 27 -56 30 -14 4 -54
25 -89 47 -34 22 -92 56 -129 75 -37 20 -119 66 -182 103 -147 86 -413 240
-650 374 -102 58 -225 129 -275 158 -119 69 -181 100 -200 100 -8 0 -20 -11
-27 -24z"/>
<path d="M20705 14121 c-233 -64 -355 -125 -478 -241 -115 -108 -184 -216
-234 -371 -57 -173 -75 -317 -70 -539 4 -204 16 -283 62 -429 41 -131 49 -149
104 -236 158 -249 415 -392 746 -416 393 -28 688 53 883 244 133 130 208 255
261 439 44 153 55 266 48 508 -5 193 -7 213 -40 335 -92 351 -301 574 -636
678 -95 30 -99 30 -356 33 -143 1 -273 -1 -290 -5z m490 -395 c107 -38 212
-131 263 -232 76 -151 105 -367 84 -628 -30 -388 -203 -586 -524 -603 -275
-15 -463 98 -552 333 -46 121 -59 195 -63 380 -4 142 -1 190 16 278 48 256
173 422 357 475 92 27 340 25 419 -3z"/>
<path d="M11316 14104 c-14 -14 -16 -98 -16 -774 0 -796 0 -801 47 -940 50
-152 168 -300 306 -382 60 -36 197 -87 293 -108 61 -14 446 -14 507 -1 96 22
237 72 294 105 146 86 262 216 310 350 59 162 56 119 60 953 4 768 4 772 -16
792 -20 20 -33 21 -206 21 -172 0 -186 -1 -205 -20 -20 -20 -20 -34 -20 -717
-1 -633 -2 -706 -19 -783 -34 -161 -104 -257 -220 -301 -162 -60 -336 -52
-489 22 -51 25 -70 41 -97 83 -91 143 -95 178 -95 1008 l0 677 -22 15 c-33 24
-389 23 -412 0z"/>
<path d="M13882 14104 l-22 -15 0 -1078 c0 -991 1 -1080 17 -1092 13 -12 133
-14 664 -17 639 -2 649 -2 669 18 18 18 20 33 20 159 0 133 -1 141 -24 168
l-24 28 -411 0 c-376 1 -413 3 -429 18 -16 16 -17 81 -22 913 -4 781 -7 896
-20 904 -8 5 -101 10 -205 10 -156 0 -195 -3 -213 -16z"/>
<path d="M15600 14100 c-18 -18 -20 -33 -20 -164 0 -130 2 -146 21 -170 l20
-26 242 -1 c133 -1 253 -4 267 -8 15 -4 32 -21 42 -41 17 -33 18 -96 18 -895
0 -523 4 -866 10 -875 8 -12 43 -16 196 -18 194 -3 244 4 244 37 0 9 0 392 0
851 0 465 4 852 9 874 17 72 13 71 289 74 136 1 256 4 268 7 35 8 44 47 44
200 0 137 -1 145 -22 159 -20 14 -114 16 -815 16 -780 0 -793 0 -813 -20z"/>
<path d="M17804 14106 c-19 -14 -19 -37 -19 -1095 0 -873 2 -1082 13 -1093 10
-10 63 -13 218 -13 192 0 207 1 220 19 11 16 14 88 14 403 0 458 -11 423 131
423 113 0 151 -16 181 -74 11 -22 33 -57 48 -76 15 -19 36 -52 46 -73 11 -20
75 -124 143 -230 185 -287 195 -302 213 -336 29 -53 64 -61 275 -61 153 0 193
3 210 15 30 21 22 39 -82 189 -46 66 -98 141 -115 166 -16 25 -54 81 -84 125
-223 329 -286 425 -286 440 0 31 20 53 78 89 62 38 150 118 194 176 64 85 91
150 104 254 41 312 -70 541 -321 661 -86 41 -116 50 -268 76 -168 28 -181 29
-533 29 -295 0 -364 -3 -380 -14z m786 -381 c74 -16 134 -42 187 -81 74 -56
99 -231 49 -341 -34 -74 -49 -89 -117 -123 -75 -39 -188 -60 -312 -60 -150 0
-141 -18 -145 293 -3 265 -2 286 24 311 21 21 215 22 314 1z"/>
<path d="M22704 14106 c-18 -14 -19 -36 -16 -1093 l2 -1078 21 -17 c18 -15 43
-18 170 -18 158 0 196 8 205 46 7 28 -3 1390 -11 1469 -5 50 -3 65 12 84 11
14 24 20 35 16 9 -4 53 -72 99 -153 45 -81 112 -199 149 -262 37 -63 100 -171
140 -240 40 -69 118 -201 173 -295 55 -93 131 -224 170 -290 38 -66 91 -156
117 -200 27 -44 55 -97 63 -117 23 -54 53 -60 341 -56 223 3 246 5 265 22 l21
19 0 1066 c0 586 -4 1071 -8 1077 -18 28 -56 34 -205 34 -138 0 -157 -2 -178
-19 l-24 -19 1 -654 c1 -359 5 -705 8 -768 6 -94 4 -119 -8 -135 -21 -28 -43
-12 -85 61 -19 32 -59 102 -89 154 -54 93 -188 321 -367 625 -49 83 -121 206
-160 275 -40 69 -88 151 -106 182 -85 144 -104 176 -132 226 -17 31 -40 57
-54 63 -13 5 -138 9 -277 9 -202 0 -256 -3 -272 -14z"/>
</g>
</svg>
